#N canvas 120 291 788 305 12;
#X obj 201 234 dac~;
#X obj 188 97 bng 15 250 50 0 empty empty empty 17 7 0 10 -262144 -1
-1;
#X msg 126 231 version;
#X obj 125 94 adc~;
#X msg 244 75 read;
#X msg 399 33 \; pd dsp 1;
#X msg 243 46 save;
#X obj 367 84 bng 15 250 50 0 empty empty empty 17 7 0 10 -262144 -1
-1;
#X obj 266 237 bng 15 250 50 0 empty empty empty 17 7 0 10 -262144
-1 -1;
#X floatatom 291 155 5 0 100 0 - - -;
#X msg 231 4 var 9 8;
#X obj 1 122 pvu~;
#X obj 38 96 pvu~;
#X obj 21 172 vu 15 120 empty empty -1 -8 0 10 -66577 -1 1 0;
#X obj 65 172 vu 15 120 empty empty -1 -8 0 10 -66577 -1 1 0;
#X obj 408 98 flatgui/entry 357 151 grey70 black;
#X obj 391 8 loadbang;
#X msg 257 122 read longchain.sco;
#X msg 65 13 setscript \$1;
#X floatatom 20 12 5 0 0 0 - - -;
#X obj 195 202 rtcmix~ 2 2;
#X floatatom 338 149 5 0 0 0 - - -;
#X msg 167 5 var 1 8;
#X connect 1 0 20 0;
#X connect 2 0 20 0;
#X connect 3 1 20 0;
#X connect 4 0 20 0;
#X connect 6 0 20 0;
#X connect 7 0 15 0;
#X connect 9 0 20 2;
#X connect 10 0 20 0;
#X connect 11 0 13 0;
#X connect 12 0 14 0;
#X connect 15 0 20 0;
#X connect 16 0 5 0;
#X connect 17 0 20 0;
#X connect 18 0 20 0;
#X connect 19 0 18 0;
#X connect 20 0 0 0;
#X connect 20 0 11 0;
#X connect 20 1 0 1;
#X connect 20 1 12 0;
#X connect 20 2 8 0;
#X connect 21 0 20 3;
#X connect 22 0 20 0;
