#N canvas 519 468 788 305 12;
#X obj 201 234 dac~;
#X obj 174 56 bng 15 250 50 0 empty empty empty 17 7 0 10 -262144 -1
-1;
#X msg 151 150 version;
#X obj 125 94 adc~;
#X msg 244 75 read;
#X msg 399 33 \; pd dsp 1;
#X msg 212 30 save;
#X obj 367 84 bng 15 250 50 0 empty empty empty 17 7 0 10 -262144 -1
-1;
#X obj 195 202 rtcmix~ 2 1;
#X obj 266 237 bng 15 250 50 0 empty empty empty 17 7 0 10 -262144
-1 -1;
#X floatatom 291 155 5 0 0 0 - - -;
#X msg 75 110 var 1 5;
#X msg 68 52 var 9 8;
#X obj 1 122 pvu~;
#X obj 38 96 pvu~;
#X obj 21 172 vu 15 120 empty empty -1 -8 0 10 -66577 -1 1 0;
#X obj 65 172 vu 15 120 empty empty -1 -8 0 10 -66577 -1 1 0;
#X obj 408 98 flatgui/entry 357 151 grey70 black;
#X msg 159 9 setscript 3;
#X msg 256 16 setscript 0;
#X obj 391 8 loadbang;
#X msg 257 122 read longchain.sco;
#X msg 267 48 read WAVETABLE \, bang;
#X msg 65 13 setscript 19;
#X connect 1 0 8 0;
#X connect 2 0 8 0;
#X connect 4 0 8 0;
#X connect 6 0 8 0;
#X connect 7 0 17 0;
#X connect 8 0 0 0;
#X connect 8 0 13 0;
#X connect 8 1 0 1;
#X connect 8 1 14 0;
#X connect 8 2 9 0;
#X connect 10 0 8 2;
#X connect 11 0 8 0;
#X connect 12 0 8 0;
#X connect 13 0 15 0;
#X connect 14 0 16 0;
#X connect 17 0 8 0;
#X connect 18 0 8 0;
#X connect 19 0 8 0;
#X connect 20 0 5 0;
#X connect 21 0 8 0;
#X connect 22 0 8 0;
#X connect 23 0 8 0;
