#N canvas 176 178 905 443 12;
#X obj 2 1 cnv 15 900 440 empty empty empty 20 12 0 14 -203904 -66577
0;
#X obj 41 21 cnv 15 120 400 empty empty empty 20 12 0 14 -159808 -66577
0;
#X text 59 25 rtcmix~ 0.21;
#X text 58 33 ____________;
#X obj 203 312 adc~;
#X obj 202 397 dac~;
#X obj 198 58 bng 30 250 50 0 object-messages empty empty 17 7 0 10
-258113 -262144 -1;
#X obj 204 141 vradio 15 1 0 3 object-messages empty empty 0 -8 0 10
-262130 -1 -1 1;
#X obj 385 21 cnv 15 470 260 empty empty empty 20 12 0 14 -204786 -66577
0;
#X obj 402 250 s object-messages;
#X msg 402 30 version;
#X msg 405 58 read;
#X msg 408 86 read sample.sco;
#X msg 411 114 save;
#X msg 415 142 saveas;
#X msg 415 190 setscript \$1;
#X floatatom 470 167 5 0 19 0 - - -;
#X msg 414 221 flush;
#X text 479 29 print current version;
#X text 446 58 read a scorefile into memory via openpanel dialog;
#X text 529 85 read a scorefile via path;
#X text 452 113 save current scorefile to last known filepath;
#X text 477 143 save current scorefile via savepanel dialog;
#X text 513 191 set the current working script (0-19);
#X text 462 222 flush the buffer to stop scorefile interpretation;
#X obj 176 241 cnv 15 160 40 empty empty empty 20 12 0 14 -204786 -66577
0;
#X obj 195 251 r object-messages;
#X text 236 53 bang left inlet;
#X text 235 70 to play current;
#X text 236 88 scorefile;
#X text 227 140 send a number;
#X text 228 158 0-20 to trigger;
#X text 228 176 nth script;
#X obj 178 344 cnv 15 280 40 empty empty empty 20 12 0 14 -262144 -66577
0;
#X obj 195 356 rtcmix~ 2 1;
#X floatatom 269 316 5 0 100 0 - - -;
#X obj 475 301 cnv 15 380 120 empty empty empty 20 12 0 14 -261682
-66577 0;
#X text 266 294 control p-fields;
#X text 488 308 CREATION ARGUMENTS;
#X text 487 331 rtcmix~ <num-channels> <num-additional-inlets>;
#X text 487 385 see pfield example for use of additional inlets;
#X text 487 358 num channels is the same for input and output;
#X text 287 355 <-- click to see editor;
#N canvas 149 117 765 370 STK 1;
#X obj 0 3 cnv 15 760 360 empty empty empty 20 12 0 14 -203904 -66577
0;
#X obj 25 93 bng 40 250 50 0 rtxhelp-stk1 empty empty 17 7 0 10 -1
-258113 -1;
#X obj 25 136 bng 40 250 50 0 rtxhelp-stk2 empty empty 17 7 0 10 -1
-258113 -1;
#X obj 25 179 bng 40 250 50 0 rtxhelp-stk3 empty empty 17 7 0 10 -1
-258113 -1;
#X obj 25 222 bng 40 250 50 0 rtxhelp-stk4 empty empty 17 7 0 10 -1
-258113 -1;
#X obj 25 265 bng 40 250 50 0 rtxhelp-stk5 empty empty 17 7 0 10 -1
-258113 -1;
#X obj 25 308 bng 40 250 50 0 rtxhelp-stk6 empty empty 17 7 0 10 -1
-258113 -1;
#N canvas 508 479 450 300 internals 0;
#N canvas 492 276 450 300 MBANDEDWG 0;
#X obj 42 16 r rtxhelp-stk1;
#X obj 40 40 int;
#X obj 68 40 + 1;
#X obj 97 40 % 2;
#X obj 40 71 + 1;
#X msg 39 97 \; object-messages read scores/stk/MBANDEDWG\$1.sco \,
bang;
#X connect 0 0 1 0;
#X connect 1 0 2 0;
#X connect 1 0 4 0;
#X connect 2 0 3 0;
#X connect 3 0 1 1;
#X connect 4 0 5 0;
#X restore 29 10 pd MBANDEDWG;
#N canvas 488 282 450 300 MBLOWBOTL 0;
#X obj 40 40 int;
#X obj 68 40 + 1;
#X obj 97 40 % 2;
#X obj 40 71 + 1;
#X msg 39 97 \; object-messages read scores/stk/MBLOWBOTL\$1.sco \,
bang;
#X obj 42 16 r rtxhelp-stk2;
#X connect 0 0 1 0;
#X connect 0 0 3 0;
#X connect 1 0 2 0;
#X connect 2 0 0 1;
#X connect 3 0 4 0;
#X connect 5 0 0 0;
#X restore 29 36 pd MBLOWBOTL;
#N canvas 488 282 450 300 MBLOWHOLE 0;
#X obj 40 40 int;
#X obj 68 40 + 1;
#X obj 97 40 % 2;
#X obj 40 71 + 1;
#X msg 39 97 \; object-messages read scores/stk/MBLOWHOLE\$1.sco \,
bang;
#X obj 42 16 r rtxhelp-stk3;
#X connect 0 0 1 0;
#X connect 0 0 3 0;
#X connect 1 0 2 0;
#X connect 2 0 0 1;
#X connect 3 0 4 0;
#X connect 5 0 0 0;
#X restore 29 62 pd MBLOWHOLE;
#N canvas 488 282 450 300 MBOWED 0;
#X msg 39 97 \; object-messages read scores/stk/MBOWED1.sco \, bang
;
#X obj 42 16 r rtxhelp-stk4;
#X connect 1 0 0 0;
#X restore 29 88 pd MBOWED;
#N canvas 490 279 450 300 MBRASS 0;
#X obj 40 40 int;
#X obj 68 40 + 1;
#X obj 40 71 + 1;
#X obj 97 40 % 4;
#X obj 42 16 r rtxhelp-stk5;
#X msg 39 97 \; object-messages read scores/stk/MBRASS\$1.sco \, bang
;
#X connect 0 0 1 0;
#X connect 0 0 2 0;
#X connect 1 0 3 0;
#X connect 2 0 5 0;
#X connect 3 0 0 1;
#X connect 4 0 0 0;
#X restore 29 114 pd MBRASS;
#N canvas 488 282 450 300 MCLAR 0;
#X obj 40 40 int;
#X obj 68 40 + 1;
#X obj 97 40 % 2;
#X obj 40 71 + 1;
#X obj 42 16 r rtxhelp-stk6;
#X msg 39 97 \; object-messages read scores/stk/MCLAR\$1.sco \, bang
;
#X connect 0 0 1 0;
#X connect 0 0 3 0;
#X connect 1 0 2 0;
#X connect 2 0 0 1;
#X connect 3 0 5 0;
#X connect 4 0 0 0;
#X restore 29 140 pd MCLAR;
#N canvas 488 282 450 300 MMESH2D 0;
#X obj 42 16 r rtxhelp-stk7;
#X msg 39 97 \; object-messages read scores/stk/MMESH2D1.sco \, bang
;
#X connect 0 0 1 0;
#X restore 134 11 pd MMESH2D;
#N canvas 488 282 450 300 MMODALBAR 0;
#X obj 40 40 int;
#X obj 68 40 + 1;
#X obj 40 71 + 1;
#X obj 42 16 r rtxhelp-stk8;
#X obj 97 40 % 4;
#X msg 39 97 \; object-messages read scores/stk/MMODALBAR\$1.sco \,
bang;
#X connect 0 0 1 0;
#X connect 0 0 2 0;
#X connect 1 0 4 0;
#X connect 2 0 5 0;
#X connect 3 0 0 0;
#X connect 4 0 0 1;
#X restore 134 37 pd MMODALBAR;
#N canvas 476 382 450 300 MSAXOFONY 0;
#X obj 40 40 int;
#X obj 68 40 + 1;
#X obj 97 40 % 2;
#X obj 40 71 + 1;
#X obj 42 16 r rtxhelp-stk9;
#X msg 39 97 \; object-messages read scores/stk/MSAXOFONY\$1.sco \,
bang;
#X connect 0 0 1 0;
#X connect 0 0 3 0;
#X connect 1 0 2 0;
#X connect 2 0 0 1;
#X connect 3 0 5 0;
#X connect 4 0 0 0;
#X restore 134 63 pd MSAXOFONY;
#N canvas 488 282 450 300 MSHAKERS 0;
#X obj 40 40 int;
#X obj 68 40 + 1;
#X obj 97 40 % 2;
#X obj 40 71 + 1;
#X obj 42 16 r rtxhelp-stk10;
#X msg 39 97 \; object-messages read scores/stk/MSHAKERS\$1.sco \,
bang;
#X connect 0 0 1 0;
#X connect 0 0 3 0;
#X connect 1 0 2 0;
#X connect 2 0 0 1;
#X connect 3 0 5 0;
#X connect 4 0 0 0;
#X restore 134 89 pd MSHAKERS;
#N canvas 488 282 450 300 MSITAR 0;
#X obj 40 40 int;
#X obj 68 40 + 1;
#X obj 97 40 % 2;
#X obj 40 71 + 1;
#X obj 42 16 r rtxhelp-stk11;
#X msg 39 97 \; object-messages read scores/stk/MSITAR\$1.sco \, bang
;
#X connect 0 0 1 0;
#X connect 0 0 3 0;
#X connect 1 0 2 0;
#X connect 2 0 0 1;
#X connect 3 0 5 0;
#X connect 4 0 0 0;
#X restore 134 115 pd MSITAR;
#X restore 657 328 pd internals;
#X obj 412 136 bng 40 250 50 0 rtxhelp-stk8 empty empty 17 7 0 10 -1
-258113 -1;
#X obj 412 179 bng 40 250 50 0 rtxhelp-stk9 empty empty 17 7 0 10 -1
-258113 -1;
#X obj 412 222 bng 40 250 50 0 rtxhelp-stk10 empty empty 17 7 0 10
-1 -258113 -1;
#X obj 412 265 bng 40 250 50 0 rtxhelp-stk11 empty empty 17 7 0 10
-1 -258113 -1;
#X text 68 133 MBLOWBOTL - simple Helmholtz resonator \; physical model
(2 examples);
#X text 67 177 MBLOWHOLE - waveguide clarinet physical \; model (2
examples);
#X text 67 219 MBOWED - bowed string physical model \; (1 example)
;
#X text 67 261 MBRASS - brass instrument physical model \; (4 examples)
;
#X text 67 304 MCLAR - clarinet physical model \; (2 examples);
#X obj 412 93 bng 40 250 50 0 rtxhelp-stk7 empty empty 17 7 0 10 -1
-258113 -1;
#X text 454 89 MMESH2D - 2-dimensional 'mesh' \; physical model (1
example);
#X text 453 175 MSAXOFONY - saxophone physical model \; (2 examples)
;
#X text 453 219 MSHAKERS - 'shaker' PhISEM and PhOLIES \; physical
model (2 examples);
#X text 453 261 MSITAR - sitar physical model \; (2 examples);
#X obj 0 3 cnv 15 760 60 empty empty empty 20 12 0 14 -159808 -66577
0;
#X text 365 9 from Perry Cooks and Gary Scavone's STK \, the Synthesis
Toolkit.;
#X text 366 41 http://www.cs.princeton.edu/~prc/NewWork.html;
#X text 18 19 STK INSTRUMENTS;
#X text 66 88 MBANDEDWG - banded waveguide instrument \; (2 examples)*
;
#X text 325 332 * for multiple examples \, press button again;
#X text 453 131 MMODALBAR - modal bar physical model \; (4 examples)
;
#X restore 46 327 pd STK examples;
#N canvas 334 87 765 504 STD 0;
#X obj 1 1 cnv 15 760 500 empty empty empty 20 12 0 14 -203904 -66577
0;
#X obj 26 91 bng 40 250 50 0 rtxhelp-std1 empty empty 17 7 0 10 -1
-258113 -1;
#X obj 26 134 bng 40 250 50 0 rtxhelp-std2 empty empty 17 7 0 10 -1
-258113 -1;
#X obj 26 177 bng 40 250 50 0 rtxhelp-std3 empty empty 17 7 0 10 -1
-258113 -1;
#X obj 26 220 bng 40 250 50 0 rtxhelp-std4 empty empty 17 7 0 10 -1
-258113 -1;
#X obj 26 263 bng 40 250 50 0 rtxhelp-std5 empty empty 17 7 0 10 -1
-258113 -1;
#X obj 26 306 bng 40 250 50 0 rtxhelp-std6 empty empty 17 7 0 10 -1
-258113 -1;
#N canvas 400 345 278 265 internals 0;
#N canvas 482 291 450 300 AMINST 0;
#X obj 42 16 r rtxhelp-std1;
#X msg 39 97 \; object-messages read scores/std/AMINST1.sco \, bang
;
#X connect 0 0 1 0;
#X restore 29 10 pd AMINST;
#N canvas 478 297 450 300 FMINST 0;
#X obj 40 40 int;
#X obj 68 40 + 1;
#X obj 40 71 + 3;
#X msg 39 97 \; object-messages read scores/std/FMINST\$1.sco \, bang
;
#X obj 42 16 r rtxhelp-std2;
#X obj 97 40 % 3;
#X connect 0 0 1 0;
#X connect 0 0 2 0;
#X connect 1 0 5 0;
#X connect 2 0 3 0;
#X connect 4 0 0 0;
#X connect 5 0 0 1;
#X restore 29 35 pd FMINST;
#N canvas 482 291 450 300 GRANSYNTH 0;
#X obj 40 40 int;
#X obj 68 40 + 1;
#X obj 97 40 % 2;
#X obj 40 71 + 2;
#X msg 39 97 \; object-messages read scores/std/GRANSYNTH\$1.sco \,
bang;
#X obj 42 16 r rtxhelp-std3;
#X connect 0 0 1 0;
#X connect 0 0 3 0;
#X connect 1 0 2 0;
#X connect 2 0 0 1;
#X connect 3 0 4 0;
#X connect 5 0 0 0;
#X restore 29 60 pd GRANSYNTH;
#N canvas 482 291 450 300 HALFWAVE 0;
#X msg 39 97 \; object-messages read scores/std/HALFWAVE.sco \, bang
;
#X obj 42 16 r rtxhelp-std4;
#X connect 1 0 0 0;
#X restore 29 85 pd HALFWAVE;
#N canvas 480 294 450 361 JGRAN 0;
#X obj 40 40 int;
#X obj 68 40 + 1;
#X obj 97 40 % 5;
#X obj 40 71 sel 0 1 2 3 4;
#X msg 26 108 \; object-messages read scores/std/JGRAN1.sco \, bang
;
#X msg 33 153 \; object-messages read scores/std/JGRAN2.sco \, bang
;
#X msg 51 195 \; object-messages read scores/std/JGRAN_FLANGE_REVERBIT.sco
\, bang;
#X msg 58 240 \; object-messages read scores/std/JGRAN_JDELAY.sco \,
bang;
#X msg 72 283 \; object-messages read scores/std/JGRAN_REVERBIT.sco
\, bang;
#X obj 42 16 r rtxhelp-std5;
#X connect 0 0 1 0;
#X connect 0 0 3 0;
#X connect 1 0 2 0;
#X connect 2 0 0 1;
#X connect 3 0 4 0;
#X connect 3 1 5 0;
#X connect 3 2 6 0;
#X connect 3 3 7 0;
#X connect 3 4 8 0;
#X connect 9 0 0 0;
#X restore 29 110 pd JGRAN;
#N canvas 484 288 450 300 METAFLUTE 0;
#X obj 42 16 r rtxhelp-std6;
#X msg 39 97 \; object-messages read scores/std/METAFLUTE5.sco \, bang
;
#X connect 0 0 1 0;
#X restore 29 135 pd METAFLUTE;
#N canvas 480 294 450 300 MULTIWAVE 0;
#X obj 40 40 int;
#X obj 68 40 + 1;
#X obj 97 40 % 2;
#X obj 42 16 r rtxhelp-std7;
#X msg 39 97 \; object-messages read scores/std/MULTIWAVE\$1.sco \,
bang;
#X obj 40 71 + 2;
#X connect 0 0 1 0;
#X connect 0 0 5 0;
#X connect 1 0 2 0;
#X connect 2 0 0 1;
#X connect 3 0 0 0;
#X connect 5 0 4 0;
#X restore 29 160 pd MULTIWAVE;
#N canvas 484 288 450 300 SGRANR 0;
#X obj 42 16 r rtxhelp-std9;
#X msg 39 97 \; object-messages read scores/std/SGRANR1.sco \, bang
;
#X connect 0 0 1 0;
#X restore 29 185 pd SGRANR;
#N canvas 480 294 450 300 SHAPE 0;
#X obj 40 40 int;
#X obj 68 40 + 1;
#X obj 97 40 % 2;
#X obj 40 71 + 1;
#X obj 42 16 r rtxhelp-std10;
#X msg 39 97 \; object-messages read scores/std/SHAPE\$1.sco \, bang
;
#X connect 0 0 1 0;
#X connect 0 0 3 0;
#X connect 1 0 2 0;
#X connect 2 0 0 1;
#X connect 3 0 5 0;
#X connect 4 0 0 0;
#X restore 166 10 pd SHAPE;
#N canvas 482 291 486 405 STRUM 0;
#X obj 40 40 int;
#X obj 68 40 + 1;
#X obj 97 40 % 18;
#X obj 40 71 sel 0 1 2 3 4 5 6 7 8 9 10 11 12 13 14 15 16 17;
#X msg 39 97 \; object-messages read scores/std/STRUM1.sco \, bang
;
#X msg 46 136 \; object-messages read scores/std/STRUM2_1.sco \, bang
;
#X msg 53 177 \; object-messages read scores/std/STRUM2_2.sco \, bang
;
#X msg 69 218 \; object-messages read scores/std/STRUM2_3.sco \, bang
;
#X msg 76 259 \; object-messages read scores/std/STRUM2_9.sco \, bang
;
#X msg 85 300 \; object-messages read scores/std/STRUM2_JDELAY.sco
\, bang;
#X msg 148 109 \; object-messages read scores/std/STRUM3.sco \, bang
;
#X msg 155 148 \; object-messages read scores/std/STRUM4.sco \, bang
;
#X msg 162 189 \; object-messages read scores/std/STRUM5.sco \, bang
;
#X msg 178 230 \; object-messages read scores/std/STRUM6_REVERBIT.sco
\, bang;
#X msg 185 271 \; object-messages read scores/std/STRUM6.sco \, bang
;
#X msg 191 342 \; object-messages read scores/std/STRUM7.sco \, bang
;
#X msg 256 102 \; object-messages read scores/std/STRUM9.sco \, bang
;
#X msg 263 141 \; object-messages read scores/std/STRUMFB4.sco \, bang
;
#X msg 270 182 \; object-messages read scores/std/STRUMFB5.sco \, bang
;
#X msg 286 223 \; object-messages read scores/std/STRUMFB6.sco \, bang
;
#X msg 293 264 \; object-messages read scores/std/STRUMFB7.sco \, bang
;
#X msg 302 305 \; object-messages read scores/std/STRUM_JDELAY.sco
\, bang;
#X obj 42 16 r rtxhelp-std11;
#X connect 0 0 1 0;
#X connect 0 0 3 0;
#X connect 1 0 2 0;
#X connect 2 0 0 1;
#X connect 3 0 4 0;
#X connect 3 1 5 0;
#X connect 3 2 6 0;
#X connect 3 3 7 0;
#X connect 3 4 8 0;
#X connect 3 5 9 0;
#X connect 3 6 10 0;
#X connect 3 7 11 0;
#X connect 3 8 12 0;
#X connect 3 9 13 0;
#X connect 3 10 14 0;
#X connect 3 11 15 0;
#X connect 3 12 16 0;
#X connect 3 13 17 0;
#X connect 3 14 18 0;
#X connect 3 15 19 0;
#X connect 3 16 20 0;
#X connect 3 17 21 0;
#X connect 22 0 0 0;
#X restore 166 35 pd STRUM;
#N canvas 482 291 450 300 SYNC 0;
#X obj 40 40 int;
#X obj 68 40 + 1;
#X obj 97 40 % 2;
#X obj 40 71 + 1;
#X obj 42 16 r rtxhelp-std12;
#X msg 39 97 \; object-messages read scores/std/SYNC\$1.sco \, bang
;
#X connect 0 0 1 0;
#X connect 0 0 3 0;
#X connect 1 0 2 0;
#X connect 2 0 0 1;
#X connect 3 0 5 0;
#X connect 4 0 0 0;
#X restore 166 60 pd SYNC;
#N canvas 480 294 450 300 VWAVE 0;
#X msg 39 97 \; object-messages read scores/std/VWAVE.sco \, bang;
#X obj 42 16 r rtxhelp-std13;
#X connect 1 0 0 0;
#X restore 166 85 pd VWAVE;
#N canvas 315 272 450 300 WAVESHAPE 0;
#X obj 42 16 r rtxhelp-std14;
#X msg 39 97 \; object-messages read scores/std/WAVESHAPE.sco \, bang
;
#X connect 0 0 1 0;
#X restore 166 110 pd WAVESHAPE;
#N canvas 257 137 670 524 WAVETABLE 0;
#X obj 42 41 int;
#X obj 68 40 + 1;
#X obj 42 16 r rtxhelp-std15;
#X obj 97 40 % 13;
#X obj 42 66 sel 0 1 2 3 4 5 6 7 8 9 10 11 12;
#X msg 42 91 \; object-messages read scores/std/WAVETABLE1.sco \, bang
;
#X msg 42 132 \; object-messages read scores/std/WAVETABLE2.sco \,
bang;
#X msg 72 176 \; object-messages read scores/std/WAVETABLE3.sco \,
bang;
#X msg 72 217 \; object-messages read scores/std/WAVETABLE4.sco \,
bang;
#X msg 108 261 \; object-messages read scores/std/WAVETABLE7.sco \,
bang;
#X msg 108 302 \; object-messages read scores/std/WAVETABLE8.sco \,
bang;
#X msg 168 110 \; object-messages read scores/std/WAVETABLE_AM1.sco
\, bang;
#X msg 168 151 \; object-messages read scores/std/WAVETABLE_BUTTER1.sco
\, bang;
#X msg 198 195 \; object-messages read scores/std/WAVETABLE_DISTORT1.sco
\, bang;
#X msg 198 236 \; object-messages read scores/std/WAVETABLE_FILTSWEEP.sco
\, bang;
#X msg 234 280 \; object-messages read scores/std/WAVETABLE_FLANGE.sco
\, bang;
#X msg 234 321 \; object-messages read scores/std/WAVETABLE_REVERBIT_1.sco
\, bang;
#X msg 246 367 \; object-messages read scores/std/WAVETABLE_REVERBIT_2.sco
\, bang;
#X connect 0 0 1 0;
#X connect 0 0 4 0;
#X connect 1 0 3 0;
#X connect 2 0 0 0;
#X connect 3 0 0 1;
#X connect 4 0 5 0;
#X connect 4 1 6 0;
#X connect 4 2 7 0;
#X connect 4 3 8 0;
#X connect 4 4 9 0;
#X connect 4 5 10 0;
#X connect 4 6 11 0;
#X connect 4 7 12 0;
#X connect 4 8 13 0;
#X connect 4 9 14 0;
#X connect 4 10 15 0;
#X connect 4 11 16 0;
#X connect 4 12 17 0;
#X restore 166 135 pd WAVETABLE;
#N canvas 484 288 450 300 WAVY 0;
#X obj 40 40 int;
#X obj 68 40 + 1;
#X obj 40 71 + 1;
#X obj 42 16 r rtxhelp-std16;
#X obj 97 40 % 3;
#X msg 39 97 \; object-messages read scores/std/WAVY\$1.sco \, bang
;
#X connect 0 0 1 0;
#X connect 0 0 2 0;
#X connect 1 0 4 0;
#X connect 2 0 5 0;
#X connect 3 0 0 0;
#X connect 4 0 0 1;
#X restore 166 160 pd WAVY;
#N canvas 484 288 450 300 WIGGLE 0;
#X obj 40 40 int;
#X obj 68 40 + 1;
#X obj 40 71 + 1;
#X obj 42 16 r rtxhelp-std17;
#X obj 97 40 % 6;
#X msg 39 97 \; object-messages read scores/std/WIGGLE\$1.sco \, bang
;
#X connect 0 0 1 0;
#X connect 0 0 2 0;
#X connect 1 0 4 0;
#X connect 2 0 5 0;
#X connect 3 0 0 0;
#X connect 4 0 0 1;
#X restore 166 185 pd WIGGLE;
#X restore 670 476 pd internals;
#X obj 26 392 bng 40 250 50 0 rtxhelp-std9 empty empty 17 7 0 10 -1
-258113 -1;
#X obj 405 91 bng 40 250 50 0 rtxhelp-std10 empty empty 17 7 0 10 -1
-258113 -1;
#X obj 405 134 bng 40 250 50 0 rtxhelp-std11 empty empty 17 7 0 10
-1 -258113 -1;
#X obj 26 349 bng 40 250 50 0 rtxhelp-std7 empty empty 17 7 0 10 -1
-258113 -1;
#X obj 1 1 cnv 15 760 60 empty empty empty 20 12 0 14 -159808 -66577
0;
#X text 292 473 * for multiple examples \, press button again;
#X text 67 86 AMINST - amplitude modulation synthesis \; (1 examples)
;
#X text 69 131 FMINST - basic FM synthesis \; (3 examples);
#X text 68 217 HALFWAVE - dual-wavetable synthesis \; instrument (1
example);
#X text 68 175 GRANSYNTH - simple granular synthesis \; (2 examples)
;
#X text 19 17 RTCMIX SYNTHESIS INSTRUMENTS;
#X text 68 259 JGRAN - FM or wavetable granular synthesis \; (5 examples)
;
#X text 68 302 METAFLUTE - flute physical model \; (1 examples);
#X text 68 345 MULTIWAVE - wavetable/additive \; synthesis instrument
(2 examples);
#X text 67 388 SGRANR - stochastic granular synthesis \; (1 example)
;
#X text 446 88 SHAPE - input sound waveshaping \; instrument (2 examples)
;
#X text 446 126 STRUM - extended plucked string model \; with distortion
and feedback \; (18 examples);
#X obj 405 177 bng 40 250 50 0 rtxhelp-std12 empty empty 17 7 0 10
-1 -258113 -1;
#X obj 405 220 bng 40 250 50 0 rtxhelp-std13 empty empty 17 7 0 10
-1 -258113 -1;
#X obj 405 263 bng 40 250 50 0 rtxhelp-std14 empty empty 17 7 0 10
-1 -258113 -1;
#X obj 405 306 bng 40 250 50 0 rtxhelp-std15 empty empty 17 7 0 10
-1 -258113 -1;
#X obj 405 349 bng 40 250 50 0 rtxhelp-std16 empty empty 17 7 0 10
-1 -258113 -1;
#X obj 405 392 bng 40 250 50 0 rtxhelp-std17 empty empty 17 7 0 10
-1 -258113 -1;
#X text 446 174 SYNC - 'hard' sync oscillator synthesis \; instrument
(2 examples);
#X text 446 216 VWAVE - 'vector' wavetable synthesis \; (1 example)
;
#X text 447 259 WAVESHAPE - waveshape distortion \; synthesis (1 example)
;
#X text 446 303 WAVETABLE - wavetable oscillator \; instrument (13
examples);
#X text 446 345 WAVY - dual oscillator wavetable \; combination instrument
(3 examples);
#X text 446 388 WIGGLE - wavetable oscillator w/ frequency \; modulation
and filter (6 examples);
#X restore 46 304 pd STD examples;
#N canvas 460 89 803 638 filters 1;
#X obj 0 -30 cnv 15 800 630 empty empty empty 20 12 0 14 -203904 -66577
0;
#X obj 27 54 bng 35 250 50 0 rtxhelp-filt1 empty empty 17 7 0 10 -1
-258113 -1;
#X obj 0 -35 cnv 15 800 60 empty empty empty 20 12 0 14 -159808 -66577
0;
#X text 201 565 * for multiple examples \, press button again;
#X obj 27 92 bng 35 250 50 0 rtxhelp-filt2 empty empty 17 7 0 10 -1
-258113 -1;
#X obj 27 130 bng 35 250 50 0 rtxhelp-filt3 empty empty 17 7 0 10 -1
-258113 -1;
#X obj 27 168 bng 35 250 50 0 rtxhelp-filt4 empty empty 17 7 0 10 -1
-258113 -1;
#X obj 27 206 bng 35 250 50 0 rtxhelp-filt5 empty empty 17 7 0 10 -1
-258113 -1;
#X obj 27 244 bng 35 250 50 0 rtxhelp-filt6 empty empty 17 7 0 10 -1
-258113 -1;
#X obj 27 282 bng 35 250 50 0 rtxhelp-filt7 empty empty 17 7 0 10 -1
-258113 -1;
#X obj 27 320 bng 35 250 50 0 rtxhelp-filt8 empty empty 17 7 0 10 -1
-258113 -1;
#X obj 27 358 bng 35 250 50 0 rtxhelp-filt9 empty empty 17 7 0 10 -1
-258113 -1;
#X obj 27 396 bng 35 250 50 0 rtxhelp-filt10 empty empty 17 7 0 10
-1 -258113 -1;
#X obj 27 434 bng 35 250 50 0 rtxhelp-filt11 empty empty 17 7 0 10
-1 -258113 -1;
#X obj 27 472 bng 35 250 50 0 rtxhelp-filt12 empty empty 17 7 0 10
-1 -258113 -1;
#X obj 27 510 bng 35 250 50 0 rtxhelp-filt13 empty empty 17 7 0 10
-1 -258113 -1;
#X obj 296 54 bng 35 250 50 0 rtxhelp-filt14 empty empty 17 7 0 10
-1 -258113 -1;
#X obj 296 92 bng 35 250 50 0 rtxhelp-filt15 empty empty 17 7 0 10
-1 -258113 -1;
#X obj 296 130 bng 35 250 50 0 rtxhelp-filt16 empty empty 17 7 0 10
-1 -258113 -1;
#X obj 296 168 bng 35 250 50 0 rtxhelp-filt17 empty empty 17 7 0 10
-1 -258113 -1;
#X obj 296 206 bng 35 250 50 0 rtxhelp-filt18 empty empty 17 7 0 10
-1 -258113 -1;
#X obj 296 244 bng 35 250 50 0 rtxhelp-filt19 empty empty 17 7 0 10
-1 -258113 -1;
#X obj 296 282 bng 35 250 50 0 rtxhelp-filt20 empty empty 17 7 0 10
-1 -258113 -1;
#X obj 296 320 bng 35 250 50 0 rtxhelp-filt21 empty empty 17 7 0 10
-1 -258113 -1;
#X obj 296 358 bng 35 250 50 0 rtxhelp-filt22 empty empty 17 7 0 10
-1 -258113 -1;
#X obj 296 396 bng 35 250 50 0 rtxhelp-filt23 empty empty 17 7 0 10
-1 -258113 -1;
#X obj 296 434 bng 35 250 50 0 rtxhelp-filt24 empty empty 17 7 0 10
-1 -258113 -1;
#X obj 296 472 bng 35 250 50 0 rtxhelp-filt25 empty empty 17 7 0 10
-1 -258113 -1;
#X obj 296 510 bng 35 250 50 0 rtxhelp-filt26 empty empty 17 7 0 10
-1 -258113 -1;
#X text 18 -19 RTCMIX FILTERS AND MUCH MORE!;
#X text 66 88 BUTTER - Butterworth filter \; (1 example);
#X text 66 126 COMBIT - Comb filter \; (3 examples);
#X text 66 164 COMPLIMIT - Compress/limit \; signal (1 example);
#X text 66 202 CONVOLVE - real-time \; convolution (1 example);
#X text 66 240 DECIMATE - bit reduction \; (1 example);
#X text 66 278 DISTORT - non-linear \; distortion (1 example);
#X text 66 316 ELL - elliptical filter \; (2 examples);
#X text 66 354 EQ - equalizing instrument \; (1 example);
#X text 66 392 FILTERBANK - multi-band \; reson instrument (2 examples)
;
#X text 66 430 FILTERSWEEP - time-varying \; bandpass filter (2 examples)
;
#X text 66 468 FLANGE - moving comb or \; notch filter (1 example)
;
#X text 66 506 FREEVERB - decent stereo \; reverb (1 example);
#X text 335 50 HOLO - stereo FIR filter \; (1 example);
#X text 335 88 IIR - infinite impulse resp. \; filter (4 examples)
;
#X text 335 126 JDELAY - regenerating delay \; line & filter (1 example)
;
#X text 335 164 JFIR - filter specified by \; freq. response (2 examples)
;
#X text 335 202 MOCKBEND - cubic spline \; dynamic pitch-shifter (1
ex.);
#X text 335 240 MOOGVCF - simulation of "Moog" \; lowpass filter (1
example);
#X text 335 278 MULTEQ - multi-band \; equalizer (2 examples);
#X text 335 316 PANECHO - stereo echo with \; feedback (4 examples)
;
#X text 335 354 PLACE - stationary source \; room sumulation (1 example)
;
#X text 335 392 REV - several basic reverbs \; (1 example);
#X text 335 430 REVERBIT - modified Schroeder \; reverb (2 examples)
;
#X text 335 468 SPECTACLE2 - FFT-based delay \; (1 example);
#X text 335 506 VOCODE2/3/SYNTH - vocoders \; (5 examples);
#X obj 570 0 cnv 15 230 600 empty empty empty 20 12 0 14 -159808 -66577
0;
#N canvas 634 476 365 268 internals 0;
#N canvas 466 315 450 300 AM 0;
#X obj 40 40 int;
#X obj 68 40 + 1;
#X obj 42 16 r rtxhelp-filt1;
#X obj 97 40 % 2;
#X obj 40 71 + 1;
#X msg 39 97 \; object-messages read scores/filt/AM\$1.sco \, bang
;
#X connect 0 0 1 0;
#X connect 0 0 4 0;
#X connect 1 0 3 0;
#X connect 2 0 0 0;
#X connect 3 0 0 1;
#X connect 4 0 5 0;
#X restore 18 16 pd AM;
#N canvas 470 309 450 300 BUTTER 0;
#X obj 42 16 r rtxhelp-filt2;
#X msg 39 97 \; object-messages read scores/filt/BUTTER1.sco \, bang
;
#X connect 0 0 1 0;
#X restore 18 41 pd BUTTER;
#N canvas 470 309 450 300 COMBIT 0;
#X obj 40 40 int;
#X obj 68 40 + 1;
#X obj 40 71 + 4;
#X obj 97 40 % 3;
#X msg 39 97 \; object-messages read scores/filt/COMBIT\$1.sco \, bang
;
#X obj 42 16 r rtxhelp-filt3;
#X connect 0 0 1 0;
#X connect 0 0 2 0;
#X connect 1 0 3 0;
#X connect 2 0 4 0;
#X connect 3 0 0 1;
#X connect 5 0 0 0;
#X restore 18 66 pd COMBIT;
#N canvas 470 309 450 300 COMPLIMIT 0;
#X msg 39 97 \; object-messages read scores/filt/COMPLIMIT2.sco \,
bang;
#X obj 42 16 r rtxhelp-filt4;
#X connect 1 0 0 0;
#X restore 18 91 pd COMPLIMIT;
#N canvas 470 309 450 300 CONVOLVE 0;
#X msg 39 97 \; object-messages read scores/filt/CONVOLVE1.sco \, bang
;
#X obj 42 16 r rtxhelp-filt5;
#X connect 1 0 0 0;
#X restore 18 116 pd CONVOLVE;
#N canvas 470 309 450 300 DECIMATE 0;
#X msg 39 97 \; object-messages read scores/filt/DECIMATE1.sco \, bang
;
#X obj 42 16 r rtxhelp-filt6;
#X connect 1 0 0 0;
#X restore 18 141 pd DECIMATE;
#N canvas 470 309 450 300 DISTORT 0;
#X obj 40 40 int;
#X obj 68 40 + 1;
#X obj 97 40 % 2;
#X obj 40 71 + 1;
#X msg 39 97 \; object-messages read scores/filt/DISTORT1.sco \, bang
;
#X obj 42 16 r rtxhelp-filt7;
#X connect 0 0 1 0;
#X connect 0 0 3 0;
#X connect 1 0 2 0;
#X connect 2 0 0 1;
#X connect 3 0 4 0;
#X connect 5 0 0 0;
#X restore 18 166 pd DISTORT;
#N canvas 470 309 450 300 ELL 0;
#X obj 40 40 int;
#X obj 68 40 + 1;
#X obj 97 40 % 2;
#X obj 40 71 + 1;
#X msg 39 97 \; object-messages read scores/filt/ELL\$1.sco \, bang
;
#X obj 42 16 r rtxhelp-filt8;
#X connect 0 0 1 0;
#X connect 0 0 3 0;
#X connect 1 0 2 0;
#X connect 2 0 0 1;
#X connect 3 0 4 0;
#X connect 5 0 0 0;
#X restore 18 191 pd ELL;
#N canvas 470 309 450 300 EQ 0;
#X msg 39 97 \; object-messages read scores/filt/EQ1.sco \, bang;
#X obj 35 38 r rtxhelp-filt9;
#X connect 1 0 0 0;
#X restore 18 216 pd EQ;
#N canvas 470 309 450 300 FILTERBANK 0;
#X obj 40 40 int;
#X obj 68 40 + 1;
#X obj 97 40 % 2;
#X obj 40 71 + 1;
#X msg 39 97 \; object-messages read scores/filt/FILTERBANK\$1.sco
\, bang;
#X obj 42 16 r rtxhelp-filt10;
#X connect 0 0 1 0;
#X connect 0 0 3 0;
#X connect 1 0 2 0;
#X connect 2 0 0 1;
#X connect 3 0 4 0;
#X connect 5 0 0 0;
#X restore 124 16 pd FILTERBANK;
#N canvas 470 309 450 300 FILTERSWEEP 0;
#X obj 40 40 int;
#X obj 68 40 + 1;
#X obj 97 40 % 2;
#X obj 40 71 sel 0 1;
#X msg 39 97 \; object-messages read scores/filt/FILTSWEEP1.sco \,
bang;
#X msg 55 144 \; object-messages read scores/filt/FILTSWEEP_JDELAY.sco
\, bang;
#X obj 42 16 r rtxhelp-filt11;
#X connect 0 0 1 0;
#X connect 0 0 3 0;
#X connect 1 0 2 0;
#X connect 2 0 0 1;
#X connect 3 0 4 0;
#X connect 3 1 5 0;
#X connect 6 0 0 0;
#X restore 124 41 pd FILTERSWEEP;
#N canvas 470 309 450 300 FLANGE 0;
#X msg 39 97 \; object-messages read scores/filt/FLANGE.sco \, bang
;
#X obj 42 16 r rtxhelp-filt12;
#X connect 1 0 0 0;
#X restore 124 66 pd FLANGE;
#N canvas 470 309 450 300 FREEVERB 0;
#X obj 40 40 int;
#X obj 68 40 + 1;
#X obj 97 40 % 2;
#X obj 40 71 + 1;
#X msg 39 97 \; object-messages read scores/filt/FREEVERB1.sco \, bang
;
#X obj 42 16 r rtxhelp-filt13;
#X connect 0 0 1 0;
#X connect 0 0 3 0;
#X connect 1 0 2 0;
#X connect 2 0 0 1;
#X connect 3 0 4 0;
#X connect 5 0 0 0;
#X restore 124 91 pd FREEVERB;
#N canvas 470 309 450 300 HOLO 0;
#X obj 40 40 int;
#X obj 68 40 + 1;
#X obj 97 40 % 2;
#X obj 40 71 + 1;
#X msg 39 97 \; object-messages read scores/filt/HOLO1.sco \, bang
;
#X obj 42 16 r rtxhelp-filt14;
#X connect 0 0 1 0;
#X connect 0 0 3 0;
#X connect 1 0 2 0;
#X connect 2 0 0 1;
#X connect 3 0 4 0;
#X connect 5 0 0 0;
#X restore 124 116 pd HOLO;
#N canvas 470 309 450 300 IIR 0;
#X obj 40 40 int;
#X obj 68 40 + 1;
#X obj 40 71 + 1;
#X obj 97 40 % 4;
#X msg 39 97 \; object-messages read scores/filt/IIR\$1.sco \, bang
;
#X obj 42 16 r rtxhelp-filt15;
#X connect 0 0 1 0;
#X connect 0 0 2 0;
#X connect 1 0 3 0;
#X connect 2 0 4 0;
#X connect 3 0 0 1;
#X connect 5 0 0 0;
#X restore 124 141 pd IIR;
#N canvas 468 312 450 300 JDELAY 0;
#X msg 39 98 \; object-messages read scores/filt/JDELAY1.sco \, bang
;
#X obj 42 16 r rtxhelp-filt16;
#X connect 1 0 0 0;
#X restore 124 166 pd JDELAY;
#N canvas 470 309 450 300 JFIR 0;
#X obj 40 40 int;
#X obj 68 40 + 1;
#X obj 97 40 % 2;
#X obj 40 71 + 1;
#X msg 39 97 \; object-messages read scores/filt/JFIR\$1.sco \, bang
;
#X obj 42 16 r rtxhelp-filt17;
#X connect 0 0 1 0;
#X connect 0 0 3 0;
#X connect 1 0 2 0;
#X connect 2 0 0 1;
#X connect 3 0 4 0;
#X connect 5 0 0 0;
#X restore 124 191 pd JFIR;
#N canvas 470 309 450 300 MOCKBEND 0;
#X obj 40 40 int;
#X obj 68 40 + 1;
#X obj 97 40 % 2;
#X obj 40 71 + 1;
#X msg 39 97 \; object-messages read scores/filt/MOCKBEND1.sco \, bang
;
#X obj 42 16 r rtxhelp-filt18;
#X connect 0 0 1 0;
#X connect 0 0 3 0;
#X connect 1 0 2 0;
#X connect 2 0 0 1;
#X connect 3 0 4 0;
#X connect 5 0 0 0;
#X restore 124 216 pd MOCKBEND;
#N canvas 470 309 450 300 MOOGVCF 0;
#X obj 40 40 int;
#X obj 68 40 + 1;
#X obj 97 40 % 2;
#X obj 40 71 + 1;
#X msg 39 97 \; object-messages read scores/filt/MOOGVCF1.sco \, bang
;
#X obj 42 16 r rtxhelp-filt19;
#X connect 0 0 1 0;
#X connect 0 0 3 0;
#X connect 1 0 2 0;
#X connect 2 0 0 1;
#X connect 3 0 4 0;
#X connect 5 0 0 0;
#X restore 242 16 pd MOOGVCF;
#N canvas 470 309 450 300 MULTEQ 0;
#X obj 40 40 int;
#X obj 68 40 + 1;
#X obj 97 40 % 2;
#X obj 40 71 sel 0 1;
#X msg 40 97 \; object-messages read scores/filt/MULTEQ1.sco \, bang
;
#X msg 60 145 \; object-messages read scores/filt/MULTEQ_FREEVERB.sco
\, bang;
#X obj 42 16 r rtxhelp-filt20;
#X connect 0 0 1 0;
#X connect 0 0 3 0;
#X connect 1 0 2 0;
#X connect 2 0 0 1;
#X connect 3 0 4 0;
#X connect 3 1 5 0;
#X connect 6 0 0 0;
#X restore 242 41 pd MULTEQ;
#N canvas 468 312 450 300 PANECHO 0;
#X obj 40 40 int;
#X obj 68 40 + 1;
#X obj 40 71 + 1;
#X obj 97 40 % 4;
#X msg 39 97 \; object-messages read scores/filt/PANECHO\$1.sco \,
bang;
#X obj 42 16 r rtxhelp-filt21;
#X connect 0 0 1 0;
#X connect 0 0 2 0;
#X connect 1 0 3 0;
#X connect 2 0 4 0;
#X connect 3 0 0 1;
#X connect 5 0 0 0;
#X restore 242 66 pd PANECHO;
#N canvas 470 309 450 300 PLACE 0;
#X msg 39 97 \; object-messages read scores/filt/PLACE1.sco \, bang
;
#X obj 42 16 r rtxhelp-filt22;
#X connect 1 0 0 0;
#X restore 242 91 pd PLACE;
#N canvas 468 312 450 300 REV 0;
#X msg 39 97 \; object-messages read scores/filt/REV1.sco \, bang;
#X obj 42 16 r rtxhelp-filt23;
#X connect 1 0 0 0;
#X restore 242 116 pd REV;
#N canvas 466 315 450 300 REVERBIT 0;
#X msg 39 99 \; object-messages read scores/filt/REVERBIT1.sco \, bang
;
#X obj 41 42 int;
#X obj 69 42 + 1;
#X obj 98 42 % 2;
#X obj 41 73 sel 0 1;
#X msg 49 149 \; object-messages read scores/filt/RT_REVERBIT.sco \,
bang;
#X obj 42 16 r rtxhelp-filt24;
#X connect 1 0 2 0;
#X connect 1 0 4 0;
#X connect 2 0 3 0;
#X connect 3 0 1 1;
#X connect 4 0 0 0;
#X connect 4 1 5 0;
#X connect 6 0 1 0;
#X restore 242 141 pd REVERBIT;
#N canvas 470 309 450 300 SPECTACLE2 0;
#X msg 39 97 \; object-messages read scores/filt/SPECTACLE2_1.sco \,
bang;
#X obj 42 16 r rtxhelp-filt25;
#X connect 1 0 0 0;
#X restore 242 166 pd SPECTACLE2;
#N canvas 470 309 505 362 VOCODE 0;
#X obj 40 40 int;
#X obj 68 40 + 1;
#X obj 97 40 % 5;
#X obj 40 71 sel 0 1 2 3 4;
#X msg 39 97 \; object-messages read scores/filt/VOCODE2_1.sco \, bang
;
#X msg 47 137 \; object-messages read scores/filt/VOCODE2_2.sco \,
bang;
#X msg 57 176 \; object-messages read scores/filt/VOCODE3_1a.sco \,
bang;
#X msg 65 216 \; object-messages read scores/filt/VOCODE3_1b.sco \,
bang;
#X msg 78 258 \; object-messages read scores/filt/VOCODESYNTH1.sco
\, bang;
#X obj 42 16 r rtxhelp-filt26;
#X connect 0 0 1 0;
#X connect 0 0 3 0;
#X connect 1 0 2 0;
#X connect 2 0 0 1;
#X connect 3 0 4 0;
#X connect 3 1 5 0;
#X connect 3 2 6 0;
#X connect 3 3 7 0;
#X connect 3 4 8 0;
#X connect 9 0 0 0;
#X restore 242 191 pd VOCODE;
#X restore 641 564 pd internals;
#X text 616 -14 Visit the scores/filt;
#X text 616 7 folder and RTcmix.org;
#X text 616 29 for more instruments;
#X text 616 48 and sample scores.;
#X text 66 50 AM - amplitude modulation \; (2 examples);
#X restore 46 350 pd filters etc.;
#N canvas 258 280 262 287 ABOUT 0;
#X text 82 7 Pd version by;
#X text 80 30 Joel Matthys;
#X text 75 38 _______________;
#X text 75 83 based on rtcmix~;
#X text 75 106 for Max/MSP by;
#X text 75 129 Brad Garton;
#X text 58 186 Copyright 2012 by;
#X text 58 209 Joel Matthys;
#X text 58 232 released under the;
#X text 36 252 Lesser GNU Public License;
#X restore 45 395 pd ABOUT;
#N canvas 207 290 403 302 demos 0;
#X obj 1 1 cnv 15 400 300 empty empty empty 20 12 0 14 -4160 -66577
0;
#N canvas 255 267 450 300 internals 0;
#X obj 36 20 r rtcx-demo1;
#X obj 58 44 r rtcx-demo2;
#X obj 86 69 r rtcx-demo3;
#X msg 42 109 \; object-messages read scores/demo/METALPIECE.sco \,
bang;
#X msg 54 156 \; object-messages read scores/demo/LONGCHAIN.sco \,
bang;
#X msg 70 216 \; object-messages read scores/demo/3xPLUS1.sco \, bang
;
#X connect 0 0 3 0;
#X connect 1 0 4 0;
#X connect 2 0 5 0;
#X restore 291 260 pd internals;
#X obj 15 23 bng 50 250 50 0 rtcx-demo1 empty empty 17 7 0 10 -1 -258113
-1;
#X obj 15 89 bng 50 250 50 0 rtcx-demo2 empty empty 17 7 0 10 -1 -257985
-1;
#X obj 15 155 bng 50 250 50 0 rtcx-demo3 empty empty 17 7 0 10 -1 -4034
-1;
#X text 74 87 LONGCHAIN \; WAVETABLE -> FLANGE -> DELAY -> REVERB;
#X text 74 22 METALMUSIC \; MMESH2D \, MBANDEDWG \, MAXBANG;
#X text 74 152 3x+1 \; MMODALBAR \, WAVETABLE \, COMBIT \, and FREEVERB
;
#X obj 16 221 bng 50 250 50 0 rtcx-demo4 empty empty 17 7 0 10 -1 -4034
-1;
#X text 75 218 PFIELDS_OF_GOLD \; TODO!;
#X restore 64 241 pd demos;
#X obj 269 398 bng 17 250 50 0 empty empty empty 17 7 0 10 -257985
-1 -1;
#X text 49 69 RTcmix musical;
#X text 67 90 language;
#X msg 410 285 livecode 0;
#X connect 4 0 34 0;
#X connect 4 1 34 1;
#X connect 10 0 9 0;
#X connect 11 0 9 0;
#X connect 12 0 9 0;
#X connect 13 0 9 0;
#X connect 14 0 9 0;
#X connect 15 0 9 0;
#X connect 16 0 15 0;
#X connect 17 0 9 0;
#X connect 26 0 34 0;
#X connect 34 0 5 0;
#X connect 34 1 5 1;
#X connect 34 2 48 0;
#X connect 35 0 34 2;
#X connect 51 0 34 0;
