#N canvas 514 153 788 305 12;
#X declare -path .;
#X obj 321 256 declare -path .;
#X obj 195 202 rtcmix~ 2 0;
#X obj 54 208 rtcmix~ 5 2;
#X floatatom 109 175 5 0 0 0 - - -;
#X floatatom 120 125 5 0 0 0 - - -;
#X obj 128 246 print;
#X obj 184 39 bng 15 250 50 0 empty empty empty 17 7 0 10 -262144 -1
-1;
#X obj 212 33 flatgui/entry 450 170 grey70 black;
#X obj 257 11 bng 15 250 50 0 empty empty empty 17 7 0 10 -262144 -1
-1;
#X obj 201 234 dac~;
#X obj 269 234 bng 15 250 50 0 empty empty empty 17 7 0 10 -262144
-1 -1;
#X obj 188 90 bng 15 250 50 0 empty empty empty 17 7 0 10 -262144 -1
-1;
#X connect 1 0 9 0;
#X connect 1 1 9 1;
#X connect 1 2 10 0;
#X connect 2 5 5 0;
#X connect 3 0 2 5;
#X connect 4 0 2 6;
#X connect 6 0 2 0;
#X connect 7 0 1 0;
#X connect 8 0 7 0;
#X connect 11 0 1 0;
