#N canvas 489 163 788 305 12;
#X declare -path .;
#X obj 321 256 declare -path .;
#X obj 195 202 rtcmix~ 2 0;
#X obj 184 39 bng 15 250 50 0 empty empty empty 17 7 0 10 -262144 -1
-1;
#X obj 219 23 flatgui/entry 450 170 grey70 black;
#X obj 220 3 bng 15 250 50 0 empty empty empty 17 7 0 10 -262144 -1
-1;
#X obj 201 234 dac~;
#X obj 269 234 bng 15 250 50 0 empty empty empty 17 7 0 10 -262144
-1 -1;
#X obj 188 90 bng 15 250 50 0 empty empty empty 17 7 0 10 -262144 -1
-1;
#X msg 151 150 version;
#X connect 1 0 5 0;
#X connect 1 1 5 1;
#X connect 1 2 6 0;
#X connect 3 0 1 0;
#X connect 4 0 3 0;
#X connect 7 0 1 0;
#X connect 8 0 1 0;
