#N canvas 725 142 450 300 12;
#X obj 36 13 bng 15 250 50 0 empty empty empty 17 7 0 10 -262144 -1
-1;
#X obj 37 37 simplebuffer temp.txt;
#X obj 39 109 print 1;
#X obj 75 78 print 2;
#X obj 138 106 print 3;
#X obj 174 75 print 4;
#X msg 192 8 write temp.txt;
#X msg 323 13 read temp.txt;
#X connect 0 0 1 0;
#X connect 1 0 2 0;
#X connect 1 1 3 0;
#X connect 1 2 4 0;
#X connect 1 3 5 0;
#X connect 6 0 1 0;
#X connect 7 0 1 0;
